<?xml version="1.0" encoding="utf-8"?>
<!-- Generator: Adobe Illustrator 22.0.0, SVG Export Plug-In . SVG Version: 6.00 Build 0)  -->
<svg version="1.1" id="Слой_1" xmlns="http://www.w3.org/2000/svg" xmlns:xlink="http://www.w3.org/1999/xlink" x="0px" y="0px"
	 viewBox="0 0 261.7 227.5" style="enable-background:new 0 0 261.7 227.5;" xml:space="preserve">
<style type="text/css">
	.st0{fill:#FFFFFF;}
	.st1{fill:none;stroke:#000000;stroke-width:1.5118;}
	.st2{fill:none;stroke:#000000;stroke-width:1.1339;}
	.st3{font-family:'ArialMT';}
	.st4{font-size:18.8976px;}
	.st5{font-size:37.7953px;}
</style>
<rect id="background" x="-266" y="-347.9" class="st0" width="794" height="1123"/>
<g id="scale_wrapper" transform="translate(397,562)">
	<g>
		<line class="st1" x1="-373.2" y1="-464.9" x2="-384.7" y2="-477.5"/>
		<line class="st2" x1="-369.7" y1="-468.1" x2="-377.1" y2="-476.6"/>
		<line class="st2" x1="-366.1" y1="-471.1" x2="-373.3" y2="-479.9"/>
		<line class="st2" x1="-362.4" y1="-474" x2="-369.3" y2="-483"/>
		<line class="st2" x1="-358.6" y1="-476.8" x2="-365.2" y2="-486"/>
		<line class="st1" x1="-354.8" y1="-479.5" x2="-364.3" y2="-493.6"/>
		<line class="st2" x1="-350.8" y1="-482.1" x2="-356.9" y2="-491.7"/>
		<line class="st2" x1="-346.8" y1="-484.5" x2="-352.6" y2="-494.3"/>
		<line class="st2" x1="-342.7" y1="-486.9" x2="-348.2" y2="-496.8"/>
		<line class="st2" x1="-338.6" y1="-489.1" x2="-343.7" y2="-499.2"/>
		<line class="st1" x1="-334.3" y1="-491.2" x2="-341.7" y2="-506.5"/>
		<line class="st2" x1="-330.1" y1="-493.1" x2="-334.6" y2="-503.5"/>
		<line class="st2" x1="-325.7" y1="-495" x2="-330" y2="-505.5"/>
		<line class="st2" x1="-321.3" y1="-496.7" x2="-325.3" y2="-507.3"/>
		<line class="st2" x1="-316.9" y1="-498.3" x2="-320.5" y2="-509"/>
		<line class="st1" x1="-312.4" y1="-499.7" x2="-317.4" y2="-516"/>
		<line class="st2" x1="-307.9" y1="-501" x2="-310.9" y2="-512"/>
		<line class="st2" x1="-303.3" y1="-502.2" x2="-306" y2="-513.2"/>
		<line class="st2" x1="-298.7" y1="-503.2" x2="-301.1" y2="-514.3"/>
		<line class="st2" x1="-294.1" y1="-504.1" x2="-296.1" y2="-515.3"/>
		<line class="st1" x1="-289.5" y1="-504.9" x2="-292" y2="-521.7"/>
		<line class="st2" x1="-284.8" y1="-505.5" x2="-286.1" y2="-516.8"/>
		<line class="st2" x1="-280.1" y1="-506" x2="-281.1" y2="-517.3"/>
		<line class="st2" x1="-275.4" y1="-506.4" x2="-276.1" y2="-517.7"/>
		<line class="st2" x1="-270.7" y1="-506.6" x2="-271" y2="-517.9"/>
		<line class="st1" x1="-266" y1="-506.6" x2="-266" y2="-523.6"/>
		<line class="st2" x1="-261.3" y1="-506.6" x2="-261" y2="-517.9"/>
		<line class="st2" x1="-256.6" y1="-506.4" x2="-255.9" y2="-517.7"/>
		<line class="st2" x1="-251.9" y1="-506" x2="-250.9" y2="-517.3"/>
		<line class="st2" x1="-247.2" y1="-505.5" x2="-245.9" y2="-516.8"/>
		<line class="st1" x1="-242.5" y1="-504.9" x2="-240" y2="-521.7"/>
		<line class="st2" x1="-237.9" y1="-504.1" x2="-235.9" y2="-515.3"/>
		<line class="st2" x1="-233.3" y1="-503.2" x2="-230.9" y2="-514.3"/>
		<line class="st2" x1="-228.7" y1="-502.2" x2="-226" y2="-513.2"/>
		<line class="st2" x1="-224.1" y1="-501" x2="-221.1" y2="-512"/>
		<line class="st1" x1="-219.6" y1="-499.7" x2="-214.6" y2="-516"/>
		<line class="st2" x1="-215.1" y1="-498.3" x2="-211.5" y2="-509"/>
		<line class="st2" x1="-210.7" y1="-496.7" x2="-206.7" y2="-507.3"/>
		<line class="st2" x1="-206.3" y1="-495" x2="-202" y2="-505.5"/>
		<line class="st2" x1="-201.9" y1="-493.1" x2="-197.4" y2="-503.5"/>
		<line class="st1" x1="-197.7" y1="-491.2" x2="-190.3" y2="-506.5"/>
		<line class="st2" x1="-193.4" y1="-489.1" x2="-188.3" y2="-499.2"/>
		<line class="st2" x1="-189.3" y1="-486.9" x2="-183.8" y2="-496.8"/>
		<line class="st2" x1="-185.2" y1="-484.5" x2="-179.4" y2="-494.3"/>
		<line class="st2" x1="-181.2" y1="-482.1" x2="-175.1" y2="-491.7"/>
		<line class="st1" x1="-177.2" y1="-479.5" x2="-167.7" y2="-493.6"/>
		<line class="st2" x1="-173.4" y1="-476.8" x2="-166.8" y2="-486"/>
		<line class="st2" x1="-169.6" y1="-474" x2="-162.7" y2="-483"/>
		<line class="st2" x1="-165.9" y1="-471.1" x2="-158.7" y2="-479.9"/>
		<line class="st2" x1="-162.3" y1="-468.1" x2="-154.9" y2="-476.6"/>
		<line class="st1" x1="-158.8" y1="-464.9" x2="-147.3" y2="-477.5"/>
	</g>
	<g>
		<text transform="matrix(1 0 0 1 -375.2271 -446.4619)" class="st3 st4">0</text>
		<text transform="matrix(1 0 0 1 -352.6002 -513.3002)" class="st3 st4">1</text>
		<text transform="matrix(1 0 0 1 -298.9644 -527.6698)" class="st3 st4">2</text>
		<text transform="matrix(1 0 0 1 -242.4999 -527.67)" class="st3 st4">3</text>
		<text transform="matrix(1 0 0 1 -190.2996 -513.3004)" class="st3 st4">4</text>
		<text transform="matrix(1 0 0 1 -171.0624 -446.4619)" class="st3 st4">5</text>
	</g>
	<text transform="matrix(1 0 0 1 -278.6047 -436.5948)" class="st3 st5">A</text>
	<path class="st2" d="M-266-334.7h-130.4v-226.8l0,0h260.8l0,0v226.8H-266z"/>
	<path class="st2" d="M-318.9-347.9c0,3.1,2.5,5.7,5.7,5.7s5.7-2.5,5.7-5.7l0,0c0-3.1-2.5-5.7-5.7-5.7S-318.9-351-318.9-347.9
		L-318.9-347.9 M-313.2-353.6v11.3 M-318.9-347.9h11.3"/>
	<path class="st2" d="M-224.4-347.9c0,3.1,2.5,5.7,5.7,5.7s5.7-2.5,5.7-5.7l0,0c0-3.1-2.5-5.7-5.7-5.7S-224.4-351-224.4-347.9
		L-224.4-347.9 M-218.8-353.6v11.3 M-224.4-347.9h11.3"/>
</g>
</svg>
