<?xml version="1.0" encoding="utf-8"?>
<!-- Generator: Adobe Illustrator 22.0.0, SVG Export Plug-In . SVG Version: 6.00 Build 0)  -->
<svg version="1.1" id="Слой_1" xmlns="http://www.w3.org/2000/svg" xmlns:xlink="http://www.w3.org/1999/xlink" x="0px" y="0px"
	 viewBox="0 0 334 293" style="enable-background:new 0 0 334 293;" xml:space="preserve">
<style type="text/css">
	.st0{fill:#FFFFFF;}
	.st1{fill:none;stroke:#000000;stroke-width:1.5118;}
	.st2{fill:none;stroke:#000000;stroke-width:1.1339;}
	.st3{font-family:'ArialMT';}
	.st4{font-size:18.8976px;}
	.st5{font-size:37.7953px;}
</style>
<rect id="background" x="-230" y="-315" class="st0" width="794" height="1123"/>
<g id="scale_wrapper" transform="translate(397,562)">
	<g>
		<line class="st1" x1="-337.2" y1="-432" x2="-348.7" y2="-444.6"/>
		<line class="st2" x1="-333.7" y1="-435.2" x2="-341.1" y2="-443.7"/>
		<line class="st2" x1="-330.1" y1="-438.2" x2="-337.3" y2="-447"/>
		<line class="st2" x1="-326.4" y1="-441.1" x2="-333.3" y2="-450.1"/>
		<line class="st2" x1="-322.6" y1="-443.9" x2="-329.2" y2="-453.1"/>
		<line class="st1" x1="-318.8" y1="-446.6" x2="-328.3" y2="-460.7"/>
		<line class="st2" x1="-314.8" y1="-449.2" x2="-320.9" y2="-458.8"/>
		<line class="st2" x1="-310.8" y1="-451.6" x2="-316.6" y2="-461.4"/>
		<line class="st2" x1="-306.7" y1="-454" x2="-312.2" y2="-463.9"/>
		<line class="st2" x1="-302.6" y1="-456.2" x2="-307.7" y2="-466.3"/>
		<line class="st1" x1="-298.3" y1="-458.3" x2="-305.7" y2="-473.6"/>
		<line class="st2" x1="-294.1" y1="-460.2" x2="-298.6" y2="-470.6"/>
		<line class="st2" x1="-289.7" y1="-462.1" x2="-294" y2="-472.6"/>
		<line class="st2" x1="-285.3" y1="-463.8" x2="-289.3" y2="-474.4"/>
		<line class="st2" x1="-280.9" y1="-465.4" x2="-284.5" y2="-476.1"/>
		<line class="st1" x1="-276.4" y1="-466.8" x2="-281.4" y2="-483.1"/>
		<line class="st2" x1="-271.9" y1="-468.1" x2="-274.9" y2="-479.1"/>
		<line class="st2" x1="-267.3" y1="-469.3" x2="-270" y2="-480.3"/>
		<line class="st2" x1="-262.7" y1="-470.3" x2="-265.1" y2="-481.4"/>
		<line class="st2" x1="-258.1" y1="-471.2" x2="-260.1" y2="-482.4"/>
		<line class="st1" x1="-253.5" y1="-472" x2="-256" y2="-488.8"/>
		<line class="st2" x1="-248.8" y1="-472.6" x2="-250.1" y2="-483.9"/>
		<line class="st2" x1="-244.1" y1="-473.1" x2="-245.1" y2="-484.4"/>
		<line class="st2" x1="-239.4" y1="-473.5" x2="-240.1" y2="-484.8"/>
		<line class="st2" x1="-234.7" y1="-473.7" x2="-235" y2="-485"/>
		<line class="st1" x1="-230" y1="-473.7" x2="-230" y2="-490.7"/>
		<line class="st2" x1="-225.3" y1="-473.7" x2="-225" y2="-485"/>
		<line class="st2" x1="-220.6" y1="-473.5" x2="-219.9" y2="-484.8"/>
		<line class="st2" x1="-215.9" y1="-473.1" x2="-214.9" y2="-484.4"/>
		<line class="st2" x1="-211.2" y1="-472.6" x2="-209.9" y2="-483.9"/>
		<line class="st1" x1="-206.5" y1="-472" x2="-204" y2="-488.8"/>
		<line class="st2" x1="-201.9" y1="-471.2" x2="-199.9" y2="-482.4"/>
		<line class="st2" x1="-197.3" y1="-470.3" x2="-194.9" y2="-481.4"/>
		<line class="st2" x1="-192.7" y1="-469.3" x2="-190" y2="-480.3"/>
		<line class="st2" x1="-188.1" y1="-468.1" x2="-185.1" y2="-479.1"/>
		<line class="st1" x1="-183.6" y1="-466.8" x2="-178.6" y2="-483.1"/>
		<line class="st2" x1="-179.1" y1="-465.4" x2="-175.5" y2="-476.1"/>
		<line class="st2" x1="-174.7" y1="-463.8" x2="-170.7" y2="-474.4"/>
		<line class="st2" x1="-170.3" y1="-462.1" x2="-166" y2="-472.6"/>
		<line class="st2" x1="-165.9" y1="-460.2" x2="-161.4" y2="-470.6"/>
		<line class="st1" x1="-161.7" y1="-458.3" x2="-154.3" y2="-473.6"/>
		<line class="st2" x1="-157.4" y1="-456.2" x2="-152.3" y2="-466.3"/>
		<line class="st2" x1="-153.3" y1="-454" x2="-147.8" y2="-463.9"/>
		<line class="st2" x1="-149.2" y1="-451.6" x2="-143.4" y2="-461.4"/>
		<line class="st2" x1="-145.2" y1="-449.2" x2="-139.1" y2="-458.8"/>
		<line class="st1" x1="-141.2" y1="-446.6" x2="-131.7" y2="-460.7"/>
		<line class="st2" x1="-137.4" y1="-443.9" x2="-130.8" y2="-453.1"/>
		<line class="st2" x1="-133.6" y1="-441.1" x2="-126.7" y2="-450.1"/>
		<line class="st2" x1="-129.9" y1="-438.2" x2="-122.7" y2="-447"/>
		<line class="st2" x1="-126.3" y1="-435.2" x2="-118.9" y2="-443.7"/>
		<line class="st1" x1="-122.8" y1="-432" x2="-111.3" y2="-444.6"/>
	</g>
	<g>
		<text transform="matrix(1 0 0 1 -339.227 -413.5284)" class="st3 st4">0</text>
		<text transform="matrix(1 0 0 1 -323.8407 -478.5335)" class="st3 st4">0.5</text>
		<text transform="matrix(1 0 0 1 -262.964 -494.7362)" class="st3 st4">1</text>
		<text transform="matrix(1 0 0 1 -215.4261 -494.7362)" class="st3 st4">1.5</text>
		<text transform="matrix(1 0 0 1 -154.5494 -478.5335)" class="st3 st4">2</text>
		<text transform="matrix(1 0 0 1 -135.0624 -413.5284)" class="st3 st4">3</text>
	</g>
	<text transform="matrix(1 0 0 1 -242.6046 -403.6614)" class="st3 st5">A</text>
	<path class="st2" d="M-230-301.8h-130.4v-226.8l0,0h260.8l0,0v226.8H-230z"/>
	<path class="st2" d="M-282.9-315c0,3.1,2.5,5.7,5.7,5.7s5.7-2.5,5.7-5.7c0,0,0,0,0,0c0-3.1-2.5-5.7-5.7-5.7S-282.9-318.1-282.9-315
		C-282.9-315-282.9-315-282.9-315 M-277.2-320.7v11.3 M-282.9-315h11.3"/>
	<path class="st2" d="M-188.4-315c0,3.1,2.5,5.7,5.7,5.7s5.7-2.5,5.7-5.7c0,0,0,0,0,0c0-3.1-2.5-5.7-5.7-5.7
		C-185.9-320.7-188.4-318.1-188.4-315C-188.4-315-188.4-315-188.4-315 M-182.8-320.7v11.3 M-188.4-315h11.3"/>
</g>
</svg>
