<?xml version="1.0" encoding="utf-8"?>
<!-- Generator: Adobe Illustrator 22.0.0, SVG Export Plug-In . SVG Version: 6.00 Build 0)  -->
<svg version="1.1"
	 id="svg1" inkscape:version="0.40+cvs" sodipodi:docbase="/home/aliekens/personal/inkscape" sodipodi:docname="io.svg" sodipodi:version="0.32" xmlns:cc="http://web.resource.org/cc/" xmlns:dc="http://purl.org/dc/elements/1.1/" xmlns:inkscape="http://www.inkscape.org/namespaces/inkscape" xmlns:rdf="http://www.w3.org/1999/02/22-rdf-syntax-ns#" xmlns:sodipodi="http://inkscape.sourceforge.net/DTD/sodipodi-0.dtd" xmlns:svg="http://www.w3.org/2000/svg"
	 xmlns="http://www.w3.org/2000/svg" xmlns:xlink="http://www.w3.org/1999/xlink" x="0px" y="0px" viewBox="0 0 442.9 488.8"
	 style="enable-background:new 0 0 442.9 488.8;" xml:space="preserve">
<style type="text/css">
	.st0{fill:#FFFFFF;}
</style>
<g id="layer1" inkscape:groupmode="layer" inkscape:label="Layer 1">
	<path id="path8" class="st0" d="M221.5,488.8C99.2,488.8,0,389.6,0,267.3c0-60.9,24.7-115.9,64.5-156l0.2,0.2
		c8-11.1,21.1-18.4,35.8-18.4c24.4,0,44.3,19.8,44.3,44.3c0,15-7.5,28.2-18.9,36.2l0.2,0.2c-23.9,24.1-38.9,57-38.9,93.5
		c0,73.7,60.1,133.5,134.2,133.5S355.5,341,355.5,267.3c0-33.3-12.5-63.6-32.9-86.9c-12.1-7.9-20.2-21.5-20.2-37.1
		c0-24.4,19.9-44.3,44.3-44.3c12,0,22.7,4.8,30.7,12.5l0.6-0.6c40.1,40.1,64.9,95.3,64.9,156.4C442.9,389.6,343.7,488.8,221.5,488.8
		z M221.4,268.8c-24.5,0-44.3-20.1-44.3-45.1V45.1c0-25,19.7-45.1,44.3-45.1s44.3,20.1,44.3,45.1v178.7
		C265.8,248.7,246,268.8,221.4,268.8z"/>
</g>
</svg>
