<?xml version="1.0" encoding="utf-8"?>
<!-- Generator: Adobe Illustrator 22.0.0, SVG Export Plug-In . SVG Version: 6.00 Build 0)  -->
<svg version="1.1" id="Слой_1" xmlns="http://www.w3.org/2000/svg" xmlns:xlink="http://www.w3.org/1999/xlink" x="0px" y="0px"
	 viewBox="0 0 285 240" style="enable-background:new 0 0 285 240;" xml:space="preserve">
<style type="text/css">
	.st0{fill:#FFFFFF;stroke:#000000;}
	.st1{fill:none;stroke:#000000;stroke-width:2;}
	.st2{fill:#FFFFFF;stroke:#000000;stroke-width:2;}
</style>
<circle class="st0" cx="19" cy="18" r="7"/>
<circle class="st0" cx="269" cy="18" r="7"/>
<line class="st1" x1="19" y1="24" x2="19" y2="88"/>
<line class="st1" x1="19" y1="88" x2="49" y2="88"/>
<line class="st1" x1="49" y1="68" x2="49" y2="108"/>
<line class="st1" x1="49" y1="68" x2="69" y2="68"/>
<line class="st1" x1="49" y1="108" x2="69" y2="108"/>
<circle class="st2" cx="89" cy="88" r="30"/>
<line class="st1" x1="110" y1="68" x2="129" y2="68"/>
<line class="st1" x1="110" y1="108" x2="129" y2="108"/>
<line class="st1" x1="129" y1="68" x2="129" y2="108"/>
<line class="st1" x1="129" y1="88" x2="189" y2="88"/>
<rect x="189" y="75" class="st2" width="50" height="25"/>
<line class="st1" x1="239" y1="88" x2="269" y2="88"/>
<line class="st1" x1="269" y1="88" x2="269" y2="24"/>
<path class="st0" d="M89,168c6.7-26.7,13.3-26.7,20,0"/>
<path class="st0" d="M109,168c6.7-26.7,13.3-26.7,20,0"/>
<path class="st0" d="M129,168c6.7-26.7,13.3-26.7,20,0"/>
<circle class="st0" cx="19" cy="218" r="7"/>
<circle class="st0" cx="269" cy="218" r="7"/>
<line class="st1" x1="269" y1="213" x2="269" y2="168"/>
<line class="st1" x1="269" y1="168" x2="149" y2="168"/>
<line class="st1" x1="19" y1="213" x2="19" y2="168"/>
<line class="st1" x1="19" y1="168" x2="89" y2="168"/>
</svg>
