<?xml version="1.0" encoding="utf-8"?>
<!-- Generator: Adobe Illustrator 22.0.0, SVG Export Plug-In . SVG Version: 6.00 Build 0)  -->
<svg version="1.1" id="Слой_1" xmlns="http://www.w3.org/2000/svg" xmlns:xlink="http://www.w3.org/1999/xlink" x="0px" y="0px"
	 viewBox="0 0 285 250.3" style="enable-background:new 0 0 285 250.3;" xml:space="preserve">
<style type="text/css">
	.st0{fill:none;stroke:#000000;}
	.st1{fill:none;stroke:#000000;stroke-width:2;}
	.st2{fill:none;stroke:#000000;stroke-miterlimit:10;}
	.st3{fill:none;stroke:#000000;stroke-width:0.75;stroke-miterlimit:10;}
	.st4{fill:none;}
	.st5{font-family:'MyriadPro-Regular';}
	.st6{font-size:27px;}
	.st7{font-size:45px;}
</style>
<circle class="st0" cx="19" cy="28.3" r="7"/>
<circle class="st0" cx="269" cy="28.3" r="7"/>
<line class="st1" x1="19" y1="35.2" x2="19" y2="99.3"/>
<line class="st1" x1="19" y1="98.3" x2="49" y2="98.3"/>
<line class="st1" x1="49" y1="78.3" x2="49" y2="118.3"/>
<line class="st1" x1="48.2" y1="78.3" x2="67.3" y2="78.3"/>
<line class="st1" x1="47.8" y1="118.3" x2="66.6" y2="118.3"/>
<circle class="st1" cx="89" cy="98.3" r="30"/>
<line class="st1" x1="111.2" y1="77.8" x2="130.2" y2="77.8"/>
<line class="st1" x1="111.2" y1="118.3" x2="130.2" y2="118.3"/>
<line class="st1" x1="129" y1="78.3" x2="129" y2="118.3"/>
<line class="st1" x1="129" y1="98.3" x2="189" y2="98.3"/>
<rect x="189" y="85.3" class="st1" width="50" height="25"/>
<line class="st1" x1="239" y1="98.3" x2="269" y2="98.3"/>
<line class="st1" x1="269" y1="99.1" x2="269" y2="35.3"/>
<path class="st0" d="M89,178.3c6.7-26.7,13.3-26.7,20,0"/>
<path class="st0" d="M109,178.3c6.7-26.7,13.3-26.7,20,0"/>
<path class="st0" d="M129,178.3c6.7-26.7,13.3-26.7,20,0"/>
<circle class="st0" cx="19" cy="230.3" r="7"/>
<circle class="st0" cx="269" cy="230.3" r="7"/>
<line class="st1" x1="269" y1="223.3" x2="269" y2="178.3"/>
<line class="st1" x1="269" y1="178.3" x2="149" y2="178.3"/>
<line class="st1" x1="19" y1="223.3" x2="19" y2="178.3"/>
<line class="st1" x1="19" y1="178.3" x2="89" y2="178.3"/>
<line class="st2" x1="32.3" y1="28.3" x2="255.3" y2="28.3"/>
<line class="st2" x1="246.3" y1="22.6" x2="255.3" y2="28.3"/>
<line class="st2" x1="247.3" y1="34.3" x2="255.3" y2="28.3"/>
<line class="st2" x1="32.3" y1="230.3" x2="255.3" y2="230.3"/>
<line class="st2" x1="245.4" y1="223.3" x2="255.1" y2="230.3"/>
<line class="st2" x1="245.3" y1="237.3" x2="255.3" y2="230.3"/>
<line class="st3" x1="19" y1="24.5" x2="19" y2="31.8"/>
<line class="st3" x1="23" y1="28.3" x2="14.8" y2="28.3"/>
<line class="st3" x1="265.5" y1="28.3" x2="273" y2="28.3"/>
<line class="st3" x1="265.3" y1="230.3" x2="272.8" y2="230.3"/>
<line class="st3" x1="15.3" y1="230.3" x2="23.3" y2="230.3"/>
<line class="st3" x1="19" y1="226.1" x2="19" y2="233.8"/>
<rect x="125.9" y="200.8" class="st4" width="43.3" height="25"/>
<text transform="matrix(1 0 0 1 125.875 220.0033)" class="st5 st6"> Uв </text>
<rect x="69.7" y="80.6" class="st4" width="39.3" height="37.7"/>
<text transform="matrix(1 0 0 1 69.6665 112.6165)" class="st5 st7">M</text>
<rect x="135.5" y="4.3" class="st4" width="21.7" height="21.3"/>
<text transform="matrix(1 0 0 1 135.4998 23.5033)" class="st5 st6">U</text>
<rect x="3.7" y="43" class="st4" width="16.7" height="24"/>
<text transform="matrix(1 0 0 1 3.6668 62.1698)" class="st5 st6">I</text>
<rect x="25" y="65.8" class="st4" width="21" height="25.7"/>
<text transform="matrix(1 0 0 1 25 85.0033)" class="st5 st6">Iя</text>
<rect x="165" y="55.3" class="st4" width="33" height="23.3"/>
<text transform="matrix(1 0 0 1 165 74.5031)" class="st5 st6" id="Rd">Rд</text>
<rect x="165" y="139.3" class="st4" width="40" height="31"/>
<!--<text transform="matrix(1 0 0 1 165.0003 158.5033)" class="st5 st6">Rр</text>-->
</svg>
