<?xml version="1.0" encoding="utf-8"?>
<!-- Generator: Adobe Illustrator 22.0.0, SVG Export Plug-In . SVG Version: 6.00 Build 0)  -->
<svg version="1.1" id="Слой_1" xmlns="http://www.w3.org/2000/svg" xmlns:xlink="http://www.w3.org/1999/xlink" x="0px" y="0px"
	 viewBox="0 0 333 311" style="enable-background:new 0 0 333 311;" xml:space="preserve">
<style type="text/css">
	.st0{fill:#FFFFFF;}
	.st1{fill:none;stroke:#000000;stroke-width:1.5118;}
	.st2{fill:none;stroke:#000000;stroke-width:1.1339;}
	.st3{font-family:'ArialMT';}
	.st4{font-size:18.8976px;}
	.st5{font-size:37.7953px;}
</style>
<rect id="background" x="-231" y="-307" class="st0" width="794" height="1123"/>
<g id="scale_wrapper" transform="translate(397,562)">
	<g>
		<line class="st1" x1="-338.2" y1="-424" x2="-349.7" y2="-436.6"/>
		<line class="st2" x1="-334.7" y1="-427.2" x2="-342.1" y2="-435.7"/>
		<line class="st2" x1="-331.1" y1="-430.2" x2="-338.3" y2="-439"/>
		<line class="st2" x1="-327.4" y1="-433.1" x2="-334.3" y2="-442.1"/>
		<line class="st2" x1="-323.6" y1="-435.9" x2="-330.2" y2="-445.1"/>
		<line class="st1" x1="-319.8" y1="-438.6" x2="-329.3" y2="-452.7"/>
		<line class="st2" x1="-315.8" y1="-441.2" x2="-321.9" y2="-450.8"/>
		<line class="st2" x1="-311.8" y1="-443.6" x2="-317.6" y2="-453.4"/>
		<line class="st2" x1="-307.7" y1="-446" x2="-313.2" y2="-455.9"/>
		<line class="st2" x1="-303.6" y1="-448.2" x2="-308.7" y2="-458.3"/>
		<line class="st1" x1="-299.3" y1="-450.3" x2="-306.7" y2="-465.6"/>
		<line class="st2" x1="-295.1" y1="-452.2" x2="-299.6" y2="-462.6"/>
		<line class="st2" x1="-290.7" y1="-454.1" x2="-295" y2="-464.6"/>
		<line class="st2" x1="-286.3" y1="-455.8" x2="-290.3" y2="-466.4"/>
		<line class="st2" x1="-281.9" y1="-457.4" x2="-285.5" y2="-468.1"/>
		<line class="st1" x1="-277.4" y1="-458.8" x2="-282.4" y2="-475.1"/>
		<line class="st2" x1="-272.9" y1="-460.1" x2="-275.9" y2="-471.1"/>
		<line class="st2" x1="-268.3" y1="-461.3" x2="-271" y2="-472.3"/>
		<line class="st2" x1="-263.7" y1="-462.3" x2="-266.1" y2="-473.4"/>
		<line class="st2" x1="-259.1" y1="-463.2" x2="-261.1" y2="-474.4"/>
		<line class="st1" x1="-254.5" y1="-464" x2="-257" y2="-480.8"/>
		<line class="st2" x1="-249.8" y1="-464.6" x2="-251.1" y2="-475.9"/>
		<line class="st2" x1="-245.1" y1="-465.1" x2="-246.1" y2="-476.4"/>
		<line class="st2" x1="-240.4" y1="-465.5" x2="-241.1" y2="-476.8"/>
		<line class="st2" x1="-235.7" y1="-465.7" x2="-236" y2="-477"/>
		<line class="st1" x1="-231" y1="-465.7" x2="-231" y2="-482.7"/>
		<line class="st2" x1="-226.3" y1="-465.7" x2="-226" y2="-477"/>
		<line class="st2" x1="-221.6" y1="-465.5" x2="-220.9" y2="-476.8"/>
		<line class="st2" x1="-216.9" y1="-465.1" x2="-215.9" y2="-476.4"/>
		<line class="st2" x1="-212.2" y1="-464.6" x2="-210.9" y2="-475.9"/>
		<line class="st1" x1="-207.5" y1="-464" x2="-205" y2="-480.8"/>
		<line class="st2" x1="-202.9" y1="-463.2" x2="-200.9" y2="-474.4"/>
		<line class="st2" x1="-198.3" y1="-462.3" x2="-195.9" y2="-473.4"/>
		<line class="st2" x1="-193.7" y1="-461.3" x2="-191" y2="-472.3"/>
		<line class="st2" x1="-189.1" y1="-460.1" x2="-186.1" y2="-471.1"/>
		<line class="st1" x1="-184.6" y1="-458.8" x2="-179.6" y2="-475.1"/>
		<line class="st2" x1="-180.1" y1="-457.4" x2="-176.5" y2="-468.1"/>
		<line class="st2" x1="-175.7" y1="-455.8" x2="-171.7" y2="-466.4"/>
		<line class="st2" x1="-171.3" y1="-454.1" x2="-167" y2="-464.6"/>
		<line class="st2" x1="-166.9" y1="-452.2" x2="-162.4" y2="-462.6"/>
		<line class="st1" x1="-162.7" y1="-450.3" x2="-155.3" y2="-465.6"/>
		<line class="st2" x1="-158.4" y1="-448.2" x2="-153.3" y2="-458.3"/>
		<line class="st2" x1="-154.3" y1="-446" x2="-148.8" y2="-455.9"/>
		<line class="st2" x1="-150.2" y1="-443.6" x2="-144.4" y2="-453.4"/>
		<line class="st2" x1="-146.2" y1="-441.2" x2="-140.1" y2="-450.8"/>
		<line class="st1" x1="-142.2" y1="-438.6" x2="-132.7" y2="-452.7"/>
		<line class="st2" x1="-138.4" y1="-435.9" x2="-131.8" y2="-445.1"/>
		<line class="st2" x1="-134.6" y1="-433.1" x2="-127.7" y2="-442.1"/>
		<line class="st2" x1="-130.9" y1="-430.2" x2="-123.7" y2="-439"/>
		<line class="st2" x1="-127.3" y1="-427.2" x2="-119.9" y2="-435.7"/>
		<line class="st1" x1="-123.8" y1="-424" x2="-112.3" y2="-436.6"/>
	</g>
	<g>
		<text transform="matrix(1 0 0 1 -340.227 -405.5284)" class="st3 st4">0</text>
		<text transform="matrix(1 0 0 1 -320.7359 -471.2313)" class="st3 st4">50</text>
		<text transform="matrix(1 0 0 1 -273.1789 -486.9251)" class="st3 st4">100</text>
		<text transform="matrix(1 0 0 1 -218.0855 -486.5886)" class="st3 st4">150</text>
		<text transform="matrix(1 0 0 1 -165.6166 -470.3217)" class="st3 st4">200</text>
		<text transform="matrix(1 0 0 1 -146.5724 -405.5284)" class="st3 st4">250</text>
	</g>
	<text transform="matrix(1 0 0 1 -240.4488 -395.6614)" class="st3 st5">v</text>
	<path class="st2" d="M-231-293.8h-130.4v-226.8l0,0h260.8l0,0v226.8H-231z"/>
	<path class="st2" d="M-283.9-307c0,3.1,2.5,5.7,5.7,5.7c3.1,0,5.7-2.5,5.7-5.7l0,0c0-3.1-2.5-5.7-5.7-5.7
		C-281.4-312.7-283.9-310.1-283.9-307L-283.9-307 M-278.2-312.7v11.4 M-283.9-307h11.3"/>
	<path class="st2" d="M-189.4-307c0,3.1,2.5,5.7,5.7,5.7c3.1,0,5.7-2.5,5.7-5.7l0,0c0-3.1-2.5-5.7-5.7-5.7S-189.4-310.1-189.4-307
		L-189.4-307 M-183.8-312.7v11.4 M-189.4-307h11.3"/>
</g>
</svg>
