<?xml version="1.0" encoding="utf-8"?>
<!-- Generator: Adobe Illustrator 22.0.0, SVG Export Plug-In . SVG Version: 6.00 Build 0)  -->
<svg version="1.1" id="Слой_1" xmlns="http://www.w3.org/2000/svg" xmlns:xlink="http://www.w3.org/1999/xlink" x="0px" y="0px"
	 viewBox="0 0 261.5 227.6" style="enable-background:new 0 0 261.5 227.6;" xml:space="preserve">
<style type="text/css">
	.st0{fill:#FFFFFF;}
	.st1{fill:none;stroke:#000000;stroke-width:1.5118;}
	.st2{fill:none;stroke:#000000;stroke-width:1.1339;}
	.st3{font-family:'ArialMT';}
	.st4{font-size:18.8976px;}
	.st5{font-size:37.7953px;}
</style>
<rect id="background" x="-266.1" y="-347.9" class="st0" width="794" height="1123"/>
<g id="scale_wrapper" transform="translate(397,562)">
	<g>
		<line class="st1" x1="-373.3" y1="-464.9" x2="-384.8" y2="-477.5"/>
		<line class="st2" x1="-369.8" y1="-468.1" x2="-377.2" y2="-476.6"/>
		<line class="st2" x1="-366.2" y1="-471.1" x2="-373.4" y2="-479.9"/>
		<line class="st2" x1="-362.5" y1="-474" x2="-369.4" y2="-483"/>
		<line class="st2" x1="-358.7" y1="-476.8" x2="-365.3" y2="-486"/>
		<line class="st1" x1="-354.9" y1="-479.5" x2="-364.4" y2="-493.6"/>
		<line class="st2" x1="-350.9" y1="-482.1" x2="-357" y2="-491.7"/>
		<line class="st2" x1="-346.9" y1="-484.5" x2="-352.7" y2="-494.3"/>
		<line class="st2" x1="-342.8" y1="-486.9" x2="-348.3" y2="-496.8"/>
		<line class="st2" x1="-338.7" y1="-489.1" x2="-343.8" y2="-499.2"/>
		<line class="st1" x1="-334.4" y1="-491.2" x2="-341.8" y2="-506.5"/>
		<line class="st2" x1="-330.2" y1="-493.1" x2="-334.7" y2="-503.5"/>
		<line class="st2" x1="-325.8" y1="-495" x2="-330.1" y2="-505.5"/>
		<line class="st2" x1="-321.4" y1="-496.7" x2="-325.4" y2="-507.3"/>
		<line class="st2" x1="-317" y1="-498.3" x2="-320.6" y2="-509"/>
		<line class="st1" x1="-312.5" y1="-499.7" x2="-317.5" y2="-516"/>
		<line class="st2" x1="-308" y1="-501" x2="-311" y2="-512"/>
		<line class="st2" x1="-303.4" y1="-502.2" x2="-306.1" y2="-513.2"/>
		<line class="st2" x1="-298.8" y1="-503.2" x2="-301.2" y2="-514.3"/>
		<line class="st2" x1="-294.2" y1="-504.1" x2="-296.2" y2="-515.3"/>
		<line class="st1" x1="-289.6" y1="-504.9" x2="-292.1" y2="-521.7"/>
		<line class="st2" x1="-284.9" y1="-505.5" x2="-286.2" y2="-516.8"/>
		<line class="st2" x1="-280.2" y1="-506" x2="-281.2" y2="-517.3"/>
		<line class="st2" x1="-275.5" y1="-506.4" x2="-276.2" y2="-517.7"/>
		<line class="st2" x1="-270.8" y1="-506.6" x2="-271.1" y2="-517.9"/>
		<line class="st1" x1="-266.1" y1="-506.6" x2="-266.1" y2="-523.6"/>
		<line class="st2" x1="-261.4" y1="-506.6" x2="-261.1" y2="-517.9"/>
		<line class="st2" x1="-256.7" y1="-506.4" x2="-256" y2="-517.7"/>
		<line class="st2" x1="-252" y1="-506" x2="-251" y2="-517.3"/>
		<line class="st2" x1="-247.3" y1="-505.5" x2="-246" y2="-516.8"/>
		<line class="st1" x1="-242.6" y1="-504.9" x2="-240.1" y2="-521.7"/>
		<line class="st2" x1="-238" y1="-504.1" x2="-236" y2="-515.3"/>
		<line class="st2" x1="-233.4" y1="-503.2" x2="-231" y2="-514.3"/>
		<line class="st2" x1="-228.8" y1="-502.2" x2="-226.1" y2="-513.2"/>
		<line class="st2" x1="-224.2" y1="-501" x2="-221.2" y2="-512"/>
		<line class="st1" x1="-219.7" y1="-499.7" x2="-214.7" y2="-516"/>
		<line class="st2" x1="-215.2" y1="-498.3" x2="-211.6" y2="-509"/>
		<line class="st2" x1="-210.8" y1="-496.7" x2="-206.8" y2="-507.3"/>
		<line class="st2" x1="-206.4" y1="-495" x2="-202.1" y2="-505.5"/>
		<line class="st2" x1="-202" y1="-493.1" x2="-197.5" y2="-503.5"/>
		<line class="st1" x1="-197.8" y1="-491.2" x2="-190.4" y2="-506.5"/>
		<line class="st2" x1="-193.5" y1="-489.1" x2="-188.4" y2="-499.2"/>
		<line class="st2" x1="-189.4" y1="-486.9" x2="-183.9" y2="-496.8"/>
		<line class="st2" x1="-185.3" y1="-484.5" x2="-179.5" y2="-494.3"/>
		<line class="st2" x1="-181.3" y1="-482.1" x2="-175.2" y2="-491.7"/>
		<line class="st1" x1="-177.3" y1="-479.5" x2="-167.8" y2="-493.6"/>
		<line class="st2" x1="-173.5" y1="-476.8" x2="-166.9" y2="-486"/>
		<line class="st2" x1="-169.7" y1="-474" x2="-162.8" y2="-483"/>
		<line class="st2" x1="-166" y1="-471.1" x2="-158.8" y2="-479.9"/>
		<line class="st2" x1="-162.4" y1="-468.1" x2="-155" y2="-476.6"/>
		<line class="st1" x1="-158.9" y1="-464.9" x2="-147.4" y2="-477.5"/>
	</g>
	<g>
		<text transform="matrix(1 0 0 1 -375.3271 -446.3954)" class="st3 st4">0</text>
		<text transform="matrix(1 0 0 1 -355.8361 -512.0983)" class="st3 st4">50</text>
		<text transform="matrix(1 0 0 1 -308.2788 -527.7921)" class="st3 st4">100</text>
		<text transform="matrix(1 0 0 1 -253.1855 -527.4556)" class="st3 st4">150</text>
		<text transform="matrix(1 0 0 1 -200.7165 -511.1886)" class="st3 st4">200</text>
		<text transform="matrix(1 0 0 1 -181.6723 -446.3954)" class="st3 st4">250</text>
	</g>
	<text transform="matrix(1 0 0 1 -275.5487 -436.5283)" class="st3 st5">v</text>
	<path class="st2" d="M-266.1-334.7h-130.4v-226.8l0,0h260.8l0,0v226.8H-266.1z"/>
	<path class="st2" d="M-319-347.9c0,3.1,2.5,5.7,5.7,5.7c3.1,0,5.7-2.5,5.7-5.7l0,0c0-3.1-2.5-5.7-5.7-5.7S-319-351-319-347.9
		L-319-347.9 M-313.3-353.6v11.4 M-319-347.9h11.3"/>
	<path class="st2" d="M-224.5-347.9c0,3.1,2.5,5.7,5.7,5.7c3.1,0,5.7-2.5,5.7-5.7l0,0c0-3.1-2.5-5.7-5.7-5.7S-224.5-351-224.5-347.9
		L-224.5-347.9 M-218.9-353.6v11.4 M-224.5-347.9h11.3"/>
</g>
</svg>
